<?xml version="1.0" encoding="UTF-8"?>
<svg width="2500px" height="2500px" viewBox="0 0 2500 2500" version="1.1" xmlns="http://www.w3.org/2000/svg" xmlns:xlink="http://www.w3.org/1999/xlink">
    <!-- Generator: Sketch 49.3 (51167) - http://www.bohemiancoding.com/sketch -->
    <title>be</title>
    <desc>Created with Sketch.</desc>
    <defs></defs>
    <g id="Page-1" stroke="none" stroke-width="1" fill="none" fill-rule="evenodd">
        <g id="be" fill-rule="nonzero">
            <circle id="background" fill="#1769FF" cx="1250" cy="1250" r="1250"></circle>
            <path d="M964.862161,809.815256 C1006.75228,809.815256 1044.98965,813.545731 1079.57426,820.928962 C1114.15887,828.312193 1143.69179,840.436236 1168.32847,857.30109 C1192.96514,874.165945 1212.08383,896.548793 1225.68452,924.527353 C1239.28521,952.505913 1246.04669,987.012804 1246.04669,1028.12574 C1246.04669,1072.50285 1235.94332,1109.49672 1215.8143,1139.10737 C1195.68528,1168.71801 1165.84148,1192.96609 1126.43835,1211.85162 C1180.68567,1227.47298 1221.17686,1254.8298 1247.91193,1293.84435 C1274.647,1332.85889 1288.01453,1379.95614 1288.01453,1435.05836 C1288.01453,1479.43546 1279.38781,1517.90598 1262.13436,1550.3922 C1244.88092,1582.87842 1221.64317,1609.38033 1192.42112,1629.89794 C1163.19907,1650.49327 1129.93567,1665.64832 1092.5532,1675.51854 C1054.93758,1685.38875 1016.15619,1690.36272 977.297077,1690.285 L550.546316,1690.2859 L550.546316,809.815256 L964.862161,809.815256 Z M940.225484,1166.15331 C974.732375,1166.15331 1003.09953,1157.91518 1025.32694,1141.51663 C1047.55435,1125.04037 1058.66806,1098.38302 1058.59034,1061.38914 C1058.59034,1040.87153 1054.85986,1024.00668 1047.47663,1010.8723 C1040.0934,997.737919 1030.22319,987.401395 1017.86599,980.018164 C1005.50879,972.634933 991.364075,967.50553 975.354121,964.629956 C958.877858,961.754381 942.16844,960.277735 925.381304,960.355453 L744.220127,960.355453 L744.220127,1166.30874 L940.225484,1166.15331 Z M951.33919,1539.7448 C969.602973,1539.82252 987.789037,1537.95728 1005.58651,1534.22681 C1022.83996,1530.49634 1038.07273,1524.3566 1051.20711,1515.72987 C1064.34149,1507.10315 1074.83345,1495.3677 1082.68299,1480.60124 C1090.45481,1465.83477 1094.41844,1446.87153 1094.41844,1423.86693 C1094.41844,1378.71265 1081.67265,1346.38187 1056.18107,1327.10775 C1030.6895,1307.75591 996.959787,1298.11885 955.069665,1298.11885 L744.220127,1298.11885 L744.220127,1539.82252 L951.33919,1539.7448 Z M1531.58344,1521.24787 C1557.8522,1546.73944 1595.70097,1559.48523 1645.05205,1559.48523 C1680.41384,1559.48523 1710.80166,1550.62535 1736.29324,1532.98332 C1761.78482,1515.34128 1777.40618,1496.61119 1783.15733,1476.87076 L1937.27256,1476.87076 C1912.63589,1553.34549 1874.78711,1607.9814 1823.80396,1640.85621 C1772.8208,1673.73102 1711.19025,1690.20728 1638.83459,1690.20728 C1588.70633,1690.20728 1543.47433,1682.20231 1503.21629,1666.19235 C1462.95825,1650.1824 1428.83995,1627.33324 1400.86139,1597.7226 C1372.88283,1568.11195 1351.27716,1532.82788 1336.12211,1491.71494 C1320.96706,1450.602 1313.35067,1405.37 1313.35067,1356.09664 C1313.35067,1308.45537 1321.12249,1264.07827 1336.74386,1222.96533 C1352.36522,1181.85239 1374.59263,1146.33516 1403.34837,1116.33593 C1432.10412,1086.33669 1466.45557,1062.71035 1506.32502,1045.45691 C1546.19447,1028.20346 1590.41614,1019.57674 1638.91231,1019.57674 C1693.15963,1019.57674 1740.41231,1030.0687 1780.74806,1051.05262 C1821.0061,1072.03654 1854.11406,1100.17054 1879.99423,1135.53233 C1905.8744,1170.89412 1924.60449,1211.15216 1936.10679,1256.38416 C1947.60909,1301.61617 1951.72815,1348.86885 1948.46399,1398.21992 L1488.52755,1398.21992 C1490.93681,1454.72107 1505.31468,1495.83401 1531.58344,1521.24787 Z M1729.53175,1185.89374 C1708.54783,1162.88914 1676.68336,1151.38684 1633.93834,1151.38684 C1605.95978,1151.38684 1582.72203,1156.12766 1564.30281,1165.53156 C1545.80588,1175.01318 1531.03941,1186.67092 1519.92571,1200.6602 C1508.812,1214.64948 1501.04018,1229.41594 1496.53252,1245.0373 C1492.02487,1260.65867 1489.30473,1274.64795 1488.52755,1286.92743 L1773.36483,1286.92743 C1765.04898,1242.62804 1750.43796,1208.89833 1729.53175,1185.89374 Z M1458.52831,854.503234 L1814.40005,854.503234 L1814.40005,953.205377 L1458.52831,953.205377 L1458.52831,854.503234 Z" id="behance" fill="#FFFFFF"></path>
        </g>
    </g>
</svg>