<?xml version="1.0" encoding="UTF-8"?>
<svg width="2500px" height="2500px" viewBox="0 0 2500 2500" version="1.1" xmlns="http://www.w3.org/2000/svg" xmlns:xlink="http://www.w3.org/1999/xlink">
    <!-- Generator: Sketch 49.3 (51167) - http://www.bohemiancoding.com/sketch -->
    <title>Group</title>
    <desc>Created with Sketch.</desc>
    <defs></defs>
    <g id="Page-1" stroke="none" stroke-width="1" fill="none" fill-rule="evenodd">
        <g id="Group" fill-rule="nonzero">
            <circle id="background" fill="#000000" cx="1250" cy="1250" r="1250"></circle>
            <path d="M748.170869,940.29122 C749.80714,924.124309 743.641994,908.145116 731.570028,897.264172 L608.600841,749.128195 L608.600841,727 L990.420168,727 L1285.54622,1374.24972 L1545.01121,727 L1909,727 L1909,749.128195 L1803.86134,849.934421 C1794.79724,856.84361 1790.30098,868.199352 1792.17928,879.438682 L1792.17928,1620.11857 C1790.30098,1631.3579 1794.79724,1642.71364 1803.86134,1649.62283 L1906.54062,1750.42906 L1906.54062,1772.55725 L1390.07003,1772.55725 L1390.07003,1750.42906 L1496.43838,1647.16414 C1506.89076,1636.71472 1506.89076,1633.64136 1506.89076,1617.65989 L1506.89076,1018.96925 L1211.14986,1770.09856 L1171.18487,1770.09856 L826.871148,1018.96925 L826.871148,1522.3857 C824.000386,1543.55075 831.029668,1564.85932 845.931373,1580.16489 L984.271708,1747.97037 L984.271708,1770.09856 L592,1770.09856 L592,1747.97037 L730.340336,1580.16489 C745.133543,1564.83394 751.752942,1543.38402 748.170869,1522.3857 L748.170869,940.29122 Z" id="Shape" fill="#FFFFFF"></path>
        </g>
    </g>
</svg>